<?xml version="1.0" encoding="UTF-8" standalone="no"?>
<!-- Created with Inkscape (http://www.inkscape.org/) -->

<svg
   width="48"
   height="48"
   viewBox="0 0 12.7 12.7"
   version="1.1"
   id="svg1"
   xmlns="http://www.w3.org/2000/svg"
   xmlns:svg="http://www.w3.org/2000/svg">
  <defs
     id="defs1" />
  <g
     id="g5"
     transform="matrix(0.11317387,0,0,0.11317387,-5.7317316,-3.3164188)">
    <path
       id="path4"
       style="fill:#ffffff;fill-opacity:1;stroke-width:3.45963;stroke-linecap:round;stroke-linejoin:round"
       d="M 104.46094,31.597656 A 53.814826,53.814826 0 0 0 50.646484,85.41211 53.814826,53.814826 0 0 0 104.46094,139.22656 53.814826,53.814826 0 0 0 158.24609,87.248047 l 1.58594,2.947266 c 0,0 3.2082,-1.75786 2.83789,-3.300782 -0.21152,-0.88138 -2.20409,-2.861286 -4.50195,-4.908203 A 53.814826,53.814826 0 0 0 104.46094,31.597656 Z" />
    <path
       id="path49"
       style="fill:#000000;fill-opacity:1;stroke:none;stroke-width:0.562447;stroke-dasharray:none;stroke-opacity:1"
       d="m 104.4367,34.22621 a 51.304078,51.304078 0 0 0 -7.049292,0.501025 c -0.140289,0.02048 -0.280987,0.03441 -0.420846,0.05509 a 51.304078,51.304078 0 0 0 -6.668545,1.452981 c -0.194151,0.0557 -0.387914,0.112436 -0.581122,0.170394 a 51.304078,51.304078 0 0 0 -6.403,2.384867 c -0.117556,0.05263 -0.233658,0.106906 -0.350681,0.160358 A 51.304078,51.304078 0 0 0 53.132673,85.530432 51.304078,51.304078 0 0 0 67.582006,121.04748 C 73.294499,110.48911 81.302442,100.22098 89.331131,94.193019 101.38414,85.143546 114.47062,82.033757 123.44031,81.111458 l -1.13731,4.418974 c 1.09792,-0.320497 2.17901,-0.584033 3.23655,-0.801615 7.40301,-1.523289 13.55034,-0.737995 14.66478,-0.601192 1.13466,0.13927 2.3223,0.330487 3.52715,0.546164 0.36085,0.06491 0.72657,0.140089 1.09222,0.21037 0.65809,0.126982 1.31914,0.261862 1.98903,0.405834 0.26585,0.05752 0.52858,0.112032 0.79161,0.165279 0.16302,0.03321 0.32496,0.06286 0.49099,0.100145 v -0.0062 C 141.6542,78.173937 135.5448,73.953931 129.728,70.689362 123.29437,66.763348 113.07568,63.296416 103.71523,62.628007 l 0.0102,-0.01434 c -0.0359,0.002 -0.0709,0.0082 -0.10527,0.01024 -0.91009,-0.06308 -1.29304,-0.08233 -1.78862,-0.0854 -0.43565,-0.02703 -0.8715,-0.0514 -1.30765,-0.06983 -0.19722,-0.181044 -5.084201,-4.628871 -9.544049,-6.418482 -2.45667,-0.98581 -4.823821,-1.523905 -6.95412,-1.578197 -0.304334,-0.0082 -0.602565,-0.0082 -0.896802,0.0041 -2.354372,0.09728 -4.374119,0.834933 -5.841845,2.264607 -2.418536,2.355805 -2.127637,5.645216 -0.756535,8.547328 -5.782842,1.723563 -11.308966,4.200221 -16.433342,7.364949 5.575921,-19.232715 23.309595,-33.297564 44.339953,-33.297564 21.18869,0.0061 39.65424,14.433082 44.78583,34.991002 2.11879,1.629069 4.17199,3.392364 6.1625,5.260681 -0.13844,-1.191777 -0.32872,-2.36367 -0.54615,-3.527163 a 51.304078,51.304078 0 0 0 -1.6984,-6.623449 c -0.0217,-0.06492 -0.0432,-0.130252 -0.0649,-0.195379 a 51.304078,51.304078 0 0 0 -2.6353,-6.407997 c -0.025,-0.05038 -0.0508,-0.100148 -0.0756,-0.150324 a 51.304078,51.304078 0 0 0 -3.4716,-5.942136 c -0.0541,-0.07967 -0.10568,-0.161179 -0.16036,-0.240498 a 51.304078,51.304078 0 0 0 -4.19853,-5.320791 c -0.0854,-0.09462 -0.16936,-0.191488 -0.25554,-0.285574 a 51.304078,51.304078 0 0 0 -4.84477,-4.639418 c -0.0997,-0.08397 -0.19518,-0.172442 -0.29559,-0.255509 a 51.304078,51.304078 0 0 0 -5.60138,-4.038187 c -0.0164,-0.01024 -0.0291,-0.02499 -0.0446,-0.03502 a 51.304078,51.304078 0 0 0 -0.0297,-0.01434 51.304078,51.304078 0 0 0 -6.26304,-3.311734 51.304078,51.304078 0 0 0 -13.65771,-3.897895 51.304078,51.304078 0 0 0 -7.1044,-0.496007 z m 8.56738,18.572683 c -1.16129,-0.0082 -2.24403,0.244573 -3.20149,0.781582 -2.07415,1.163351 -2.69842,3.305507 -2.53515,5.526226 6.35407,0.01638 12.81143,1.082414 19.14884,3.126327 -1.00975,-1.458736 -3.28115,-4.526736 -5.66648,-6.312805 -1.72996,-1.295325 -3.4866,-2.218691 -5.15546,-2.7105 -0.23839,-0.07024 -0.47178,-0.132915 -0.7064,-0.185345 -0.46934,-0.104858 -0.93211,-0.173876 -1.38281,-0.205415 -0.16897,-0.01229 -0.33516,-0.01843 -0.50105,-0.02048 z m -2.61029,18.457461 c 1.14336,-0.01843 2.70828,0.07946 4.65944,0.486034 6.41197,1.337289 8.38701,3.196471 8.38701,3.196471 0,0 -3.47008,-1.288402 -8.33189,-1.267553 -0.18371,7.78e-4 -0.35281,0.02089 -0.51106,0.0555 a 3.4474374,3.2385538 0 0 1 -3.1514,1.954005 3.4474374,3.2385538 0 0 1 -3.447,-3.241589 3.4474374,3.2385538 0 0 1 0.15032,-0.936944 c 6e-5,-5.94e-4 0,-0.01024 0,-0.01024 0,0 0.77446,-0.212481 2.24454,-0.23548 z m 48.79399,14.47435 c -3.06394,0.06696 -7.12167,1.136359 -9.31891,2.439964 -0.004,0.0018 -0.006,0.0018 -0.0102,0.0062 -0.70534,0.419698 -1.24618,0.859404 -1.45796,1.302653 -0.004,0.008 -0.006,0.01843 -0.0102,0.02502 -0.0655,0.145618 -0.11182,0.291478 -0.11018,0.435921 0.0102,0.931429 0.36364,2.048074 1.03711,3.106316 -0.91097,-0.134141 -1.85952,-0.243057 -2.86083,-0.300605 -3.00383,-0.172651 -6.50067,0.119601 -11.02736,1.598227 -10.07883,3.291804 -15.46675,7.73701 -17.53119,9.75483 -0.68817,0.67263 -1.00704,1.07719 -1.00704,1.07719 l 1.76357,-6.44308 c 0,0 -5.95104,3.184 -10.34099,9.48426 -0.48774,0.69998 -0.9539,1.43758 -1.39283,2.21449 -0.43897,0.77687 -0.84794,1.59134 -1.21746,2.44495 -1.84769,4.26808 -2.70049,9.49459 -1.26757,15.66678 0.18042,0.77737 0.40198,1.52217 0.65133,2.23455 0.006,0.0164 0.0102,0.0337 0.0143,0.0507 0.20634,0.58653 0.44919,1.13816 0.69641,1.68342 0.0608,0.13333 0.10731,0.27999 0.17039,0.41077 0.31611,0.65985 0.66404,1.28728 1.0321,1.88882 0.34246,0.55962 0.78463,1.20206 1.17739,1.73352 a 51.304078,51.304078 0 0 0 46.22376,-39.961055 11.459036,9.5427172 41.109347 0 0 0.13026,0.01434 c 0.0561,0.01229 0.0995,0.01638 0.15032,0.02502 a 11.459036,9.5427172 41.109347 0 0 0.37579,0.05075 c 0.15053,0.01024 0.30812,0.008 0.5261,-0.01434 4.18476,-0.446072 9.62353,-9.505015 6.19756,-10.636583 -0.67965,-0.224439 -1.58096,-0.312768 -2.59526,-0.290525 z" />
  </g>
</svg>
